<svg width="305" height="92" viewBox="0 0 305 92" fill="none" xmlns="http://www.w3.org/2000/svg">
<path d="M100.91 64.386C100.91 65.1783 101.026 65.8425 101.259 66.3784C101.515 66.9144 101.865 67.3455 102.307 67.6717C102.773 67.998 103.332 68.231 103.984 68.3708C104.659 68.5106 105.404 68.5805 106.219 68.5805C106.405 68.5805 106.499 68.6738 106.499 68.8602V70.7477C106.499 70.8176 106.487 70.8875 106.464 70.9574C106.44 71.0041 106.359 71.0274 106.219 71.0274H85.576C85.4596 71.0274 85.3781 70.9924 85.3315 70.9225C85.3083 70.8526 85.2966 70.7943 85.2966 70.7477V68.8602C85.2966 68.8136 85.3083 68.7553 85.3315 68.6854C85.3781 68.6155 85.4596 68.5805 85.576 68.5805C86.3911 68.5805 87.1246 68.5339 87.7766 68.4407C88.4519 68.3242 89.0224 68.0912 89.4881 67.7416C89.9538 67.3921 90.3147 66.8911 90.5709 66.2386C90.827 65.5861 90.9551 64.7006 90.9551 63.5821V28.383C90.9551 27.5907 90.827 26.9265 90.5709 26.3906C90.338 25.8546 89.9887 25.4235 89.523 25.0973C89.0806 24.771 88.5217 24.538 87.8464 24.3982C87.1944 24.2584 86.4609 24.1884 85.6459 24.1884C85.4596 24.1884 85.3665 24.0952 85.3665 23.9088V22.0213C85.3665 21.8349 85.4596 21.7416 85.6459 21.7416H106.289C106.405 21.7416 106.475 21.7766 106.499 21.8465C106.545 21.9164 106.568 21.9747 106.568 22.0213V23.9088C106.568 23.9554 106.545 24.0137 106.499 24.0836C106.475 24.1535 106.405 24.1884 106.289 24.1884C105.474 24.1884 104.729 24.2467 104.053 24.3632C103.401 24.4564 102.843 24.6778 102.377 25.0274C101.911 25.3769 101.55 25.8779 101.294 26.5304C101.038 27.1829 100.91 28.0684 100.91 29.1869V64.386Z" fill="black"/>
<path d="M123.614 37.1216C123.707 37.075 123.8 37.0284 123.893 36.9818C124.01 36.9352 124.091 36.9119 124.138 36.9119C124.534 36.9119 124.731 37.1915 124.731 37.7508V43.5532C124.755 43.693 124.848 43.7629 125.011 43.7629C125.151 43.7629 125.314 43.7163 125.5 43.6231C126.548 43.0638 127.572 42.4929 128.574 41.9103C129.575 41.3045 130.576 40.7568 131.578 40.2675C132.602 39.7781 133.627 39.382 134.651 39.079C135.676 38.7761 136.712 38.6246 137.76 38.6246C138.808 38.6246 139.693 38.7528 140.415 39.0091C141.136 39.2654 141.742 39.6033 142.231 40.0228C142.72 40.4189 143.116 40.8617 143.418 41.3511C143.744 41.8171 144.024 42.2715 144.257 42.7143C144.28 42.7842 144.327 42.8774 144.396 42.9939C144.466 43.0871 144.548 43.192 144.641 43.3085C144.757 43.425 144.862 43.5299 144.955 43.6231C145.072 43.693 145.188 43.728 145.305 43.728C145.631 43.7047 145.968 43.5998 146.318 43.4134C148.576 42.2715 150.416 41.386 151.836 40.7568C153.28 40.1044 154.479 39.6266 155.434 39.3237C156.412 38.9975 157.227 38.7994 157.879 38.7295C158.554 38.6596 159.241 38.6246 159.94 38.6246C161.314 38.6246 162.49 38.8693 163.468 39.3587C164.469 39.848 165.307 40.5005 165.983 41.3161C166.658 42.1084 167.193 43.0289 167.589 44.0775C168.008 45.1028 168.323 46.1631 168.532 47.2584C168.742 48.3303 168.882 49.4022 168.952 50.4742C169.021 51.5228 169.056 52.4782 169.056 53.3404C169.056 54.156 169.033 54.9134 168.986 55.6125C168.963 56.3116 168.928 57.0805 168.882 57.9195C168.858 58.7351 168.823 59.6672 168.777 60.7158C168.754 61.7644 168.742 63.0344 168.742 64.5258C168.742 65.2249 168.87 65.8075 169.126 66.2736C169.382 66.7396 169.708 67.1241 170.104 67.427C170.523 67.73 170.977 67.963 171.466 68.1261C171.955 68.266 172.433 68.3825 172.899 68.4757C173.364 68.5689 173.783 68.6505 174.156 68.7204C174.552 68.767 174.855 68.8369 175.064 68.9301C175.157 68.9767 175.239 69.1282 175.309 69.3845C175.378 69.6408 175.413 69.8273 175.413 69.9438C175.413 70.0836 175.39 70.2933 175.344 70.5729C175.297 70.8293 175.204 70.9808 175.064 71.0274H155.574C155.434 70.9808 155.341 70.8293 155.294 70.5729C155.248 70.2933 155.224 70.0836 155.224 69.9438C155.224 69.8273 155.259 69.6408 155.329 69.3845C155.399 69.1282 155.481 68.9767 155.574 68.9301C155.876 68.7903 156.307 68.6854 156.866 68.6155C157.425 68.5223 157.984 68.3475 158.543 68.0912C159.102 67.8115 159.579 67.3921 159.975 66.8328C160.394 66.2736 160.604 65.4346 160.604 64.3161V64.2462C160.72 63.5238 160.79 62.7315 160.813 61.8693C160.86 60.9838 160.883 60.0167 160.883 58.9681C160.883 58.4554 160.871 57.9777 160.848 57.535C160.848 57.0689 160.848 56.6028 160.848 56.1368C160.848 55.6474 160.836 55.1231 160.813 54.5638C160.813 54.0046 160.813 53.3637 160.813 52.6413C160.813 51.4995 160.755 50.3576 160.638 49.2158C160.545 48.074 160.289 47.0486 159.87 46.1398C159.474 45.231 158.88 44.497 158.089 43.9377C157.297 43.3551 156.202 43.0638 154.805 43.0638C154.572 43.0638 154.316 43.0988 154.037 43.1687C153.757 43.2153 153.373 43.3318 152.884 43.5182C152.395 43.6814 151.743 43.9377 150.928 44.2872C150.113 44.6368 149.042 45.0912 147.715 45.6505C147.528 45.767 147.331 45.9068 147.121 46.0699C146.935 46.2097 146.83 46.3961 146.807 46.6292V64.5258C146.807 65.5745 147.016 66.3784 147.435 66.9377C147.854 67.4737 148.343 67.8698 148.902 68.1261C149.461 68.3592 150.02 68.5223 150.579 68.6155C151.138 68.6854 151.569 68.7903 151.871 68.9301C151.964 68.9767 152.046 69.1282 152.116 69.3845C152.186 69.6408 152.221 69.8273 152.221 69.9438C152.221 70.0836 152.197 70.2933 152.151 70.5729C152.104 70.8293 152.011 70.9808 151.871 71.0274H133.638C133.499 70.9808 133.405 70.8293 133.359 70.5729C133.312 70.2933 133.289 70.0836 133.289 69.9438C133.289 69.8273 133.324 69.6408 133.394 69.3845C133.464 69.1282 133.545 68.9767 133.638 68.9301C133.941 68.7903 134.372 68.6854 134.931 68.6155C135.49 68.5223 136.048 68.3592 136.607 68.1261C137.166 67.8698 137.655 67.4737 138.074 66.9377C138.493 66.3784 138.703 65.5745 138.703 64.5258V49.2857C138.703 48.3769 138.633 47.5496 138.493 46.804C138.354 46.035 138.086 45.3825 137.69 44.8465C137.294 44.2872 136.735 43.8561 136.014 43.5532C135.315 43.2503 134.395 43.0988 133.254 43.0988C132.719 43.0988 132.043 43.2503 131.228 43.5532C130.413 43.8328 129.575 44.194 128.713 44.6368C127.875 45.0795 127.083 45.5456 126.338 46.035C125.616 46.5243 125.081 46.9787 124.731 47.3982V64.5258C124.731 65.5745 124.941 66.3784 125.36 66.9377C125.779 67.4737 126.268 67.8698 126.827 68.1261C127.386 68.3592 127.945 68.5223 128.504 68.6155C129.063 68.6854 129.493 68.7903 129.796 68.9301C129.889 68.9767 129.971 69.1282 130.041 69.3845C130.111 69.6408 130.145 69.8273 130.145 69.9438C130.145 70.0836 130.122 70.2933 130.076 70.5729C130.029 70.8293 129.936 70.9808 129.796 71.0274H111.563C111.424 70.9808 111.33 70.8293 111.284 70.5729C111.237 70.2933 111.214 70.0836 111.214 69.9438C111.214 69.8273 111.249 69.6408 111.319 69.3845C111.389 69.1282 111.47 68.9767 111.563 68.9301C111.866 68.7903 112.297 68.6854 112.856 68.6155C113.414 68.5223 113.973 68.3592 114.532 68.1261C115.091 67.8698 115.58 67.4853 115.999 66.9726C116.418 66.4367 116.628 65.6444 116.628 64.5957V46.804C116.628 46.2447 116.477 45.8136 116.174 45.5106C115.871 45.1844 115.487 44.9397 115.021 44.7766C114.555 44.6135 114.055 44.4853 113.519 44.3921C112.984 44.2756 112.471 44.1474 111.982 44.0076C111.843 43.961 111.726 43.9027 111.633 43.8328C111.563 43.7396 111.528 43.5648 111.528 43.3085C111.528 43.192 111.563 43.0755 111.633 42.959C111.703 42.8424 111.843 42.7259 112.052 42.6094L123.614 37.1216Z" fill="black"/>
<path d="M188.372 37.1216C188.465 37.075 188.558 37.0284 188.652 36.9818C188.768 36.9352 188.849 36.9119 188.896 36.9119C189.292 36.9119 189.49 37.1915 189.49 37.7508V41.4559C189.49 41.5724 189.536 41.6657 189.63 41.7356C189.746 41.8055 189.839 41.8404 189.909 41.8404C190.025 41.8404 190.13 41.8171 190.223 41.7705C190.34 41.7006 190.445 41.6423 190.538 41.5957C191.469 41.0365 192.307 40.5704 193.053 40.1976C193.798 39.8014 194.508 39.4985 195.183 39.2888C195.859 39.0557 196.557 38.8926 197.279 38.7994C198.001 38.7062 198.816 38.6596 199.724 38.6596C201.703 38.6596 203.473 39.1373 205.033 40.0927C206.617 41.0248 207.956 42.2599 209.05 43.7979C210.144 45.3126 210.983 47.0253 211.565 48.9362C212.147 50.847 212.438 52.7695 212.438 54.7036C212.438 56.1251 212.24 57.5466 211.844 58.9681C211.449 60.3896 210.901 61.7411 210.203 63.0228C209.504 64.2812 208.666 65.458 207.688 66.5532C206.71 67.6484 205.627 68.6039 204.439 69.4194C203.275 70.2118 202.018 70.8293 200.667 71.272C199.34 71.7381 197.966 71.9711 196.545 71.9711C195.498 71.9711 194.473 71.9012 193.472 71.7614C192.494 71.6216 191.411 71.4235 190.223 71.1672C189.827 71.1672 189.606 71.307 189.56 71.5866C189.536 71.8663 189.513 72.1575 189.49 72.4605V86.6869C189.49 87.3627 189.63 87.922 189.909 88.3647C190.212 88.8308 190.584 89.2036 191.027 89.4833C191.492 89.7862 191.993 90.0076 192.529 90.1474C193.087 90.3105 193.623 90.4387 194.135 90.5319C194.648 90.6251 195.113 90.695 195.533 90.7416C195.952 90.8115 196.266 90.8931 196.476 90.9863C196.708 91.0795 196.825 91.231 196.825 91.4407C196.825 91.767 196.708 91.9534 196.476 92H176.322C176.089 91.9534 175.972 91.767 175.972 91.4407C175.972 91.231 176.089 91.0795 176.322 90.9863C176.624 90.8465 177.055 90.73 177.614 90.6368C178.173 90.5669 178.732 90.4037 179.291 90.1474C179.849 89.9144 180.338 89.5299 180.758 88.9939C181.177 88.4813 181.386 87.7123 181.386 86.6869V46.769C181.386 46.2097 181.235 45.7786 180.932 45.4757C180.629 45.1494 180.245 44.9048 179.78 44.7416C179.314 44.5785 178.813 44.4504 178.278 44.3571C177.742 44.2406 177.23 44.1125 176.741 43.9726C176.601 43.926 176.485 43.8678 176.391 43.7979C176.322 43.7047 176.287 43.5299 176.287 43.2736C176.287 43.157 176.322 43.0405 176.391 42.924C176.461 42.8075 176.601 42.691 176.811 42.5745L188.372 37.1216ZM196.615 42.6094C195.358 42.6094 194.205 42.7842 193.157 43.1337C192.133 43.4833 191.085 44.0542 190.014 44.8465C189.967 44.8698 189.909 44.9164 189.839 44.9863C189.793 45.0329 189.746 45.0795 189.699 45.1261L189.49 45.3359V64.0015C189.49 64.0714 189.501 64.2695 189.525 64.5957C189.548 64.8987 189.583 65.1783 189.63 65.4346C189.699 65.924 190.002 66.3784 190.538 66.7979C191.073 67.194 191.679 67.5436 192.354 67.8465C193.053 68.1261 193.74 68.3475 194.415 68.5106C195.113 68.6505 195.672 68.7204 196.091 68.7204C197.628 68.7204 198.921 68.4407 199.969 67.8815C201.04 67.3222 201.901 66.5765 202.553 65.6444C203.205 64.689 203.671 63.5821 203.95 62.3237C204.253 61.0653 204.404 59.7254 204.404 58.304C204.404 57.2087 204.346 56.0669 204.23 54.8784C204.113 53.6667 203.927 52.4782 203.671 51.3131C203.438 50.1479 203.112 49.041 202.693 47.9924C202.297 46.9438 201.808 46.0233 201.226 45.231C200.667 44.4387 200.003 43.8095 199.235 43.3435C198.467 42.8541 197.593 42.6094 196.615 42.6094Z" fill="black"/>
<path d="M233.291 70.3283C232.522 70.8642 231.614 71.2837 230.566 71.5866C229.518 71.8896 228.471 72.041 227.423 72.041C224.582 72.041 222.416 71.4002 220.926 70.1185C219.459 68.8369 218.725 67.1008 218.725 64.9103C218.725 63.652 219.005 62.5684 219.564 61.6596C220.146 60.7508 220.996 59.9468 222.113 59.2477C223.231 58.5486 224.605 57.9195 226.235 57.3602C227.888 56.7776 229.798 56.2067 231.963 55.6474C233.128 55.3445 234.059 55.0182 234.758 54.6687C235.48 54.3191 236.143 53.9813 236.749 53.655C237.145 53.4453 237.366 53.2589 237.412 53.0957C237.482 52.9326 237.517 52.7812 237.517 52.6413V46.5593C237.517 45.7903 237.401 45.0795 237.168 44.4271C236.958 43.7513 236.632 43.1687 236.19 42.6793C235.747 42.19 235.212 41.8055 234.583 41.5258C233.954 41.2462 233.244 41.1064 232.452 41.1064C231.777 41.1064 231.148 41.2229 230.566 41.4559C229.984 41.689 229.484 42.0268 229.064 42.4696C228.645 42.9124 228.308 43.4367 228.051 44.0426C227.819 44.6484 227.702 45.3359 227.702 46.1049C227.702 46.1748 227.702 46.2796 227.702 46.4195C227.725 46.5593 227.749 46.7107 227.772 46.8739C227.795 47.0137 227.819 47.1418 227.842 47.2584C227.865 47.3749 227.877 47.4448 227.877 47.4681C227.853 47.5147 227.656 47.6079 227.283 47.7477C226.934 47.8875 226.491 48.0507 225.956 48.2371C225.443 48.4002 224.873 48.575 224.244 48.7614C223.615 48.9245 223.01 49.0876 222.428 49.2508C221.869 49.4139 221.368 49.5653 220.926 49.7052C220.507 49.8217 220.216 49.8916 220.053 49.9149C219.797 49.9149 219.634 49.7867 219.564 49.5304C219.517 49.2508 219.494 48.9828 219.494 48.7264C219.494 47.3749 219.901 46.0583 220.716 44.7766C221.531 43.4949 222.614 42.3647 223.965 41.386C225.339 40.384 226.91 39.58 228.68 38.9742C230.45 38.3683 232.278 38.0653 234.164 38.0653C235.841 38.0653 237.343 38.2867 238.67 38.7295C239.997 39.1489 241.127 39.7432 242.058 40.5122C242.989 41.2579 243.7 42.1317 244.189 43.1337C244.678 44.1125 244.922 45.1611 244.922 46.2796V62.9529C244.922 63.5588 245.143 64.1064 245.586 64.5957C246.051 65.0618 246.645 65.2948 247.367 65.2948C247.786 65.2948 248.159 65.2249 248.485 65.0851C248.834 64.922 249.137 64.7472 249.393 64.5608C249.672 64.3511 249.905 64.1763 250.092 64.0365C250.278 63.8734 250.441 63.7918 250.581 63.7918C250.767 63.7918 250.872 63.8734 250.895 64.0365C250.918 64.1763 250.93 64.3045 250.93 64.421C250.93 64.8171 250.872 65.2249 250.755 65.6444C250.662 66.0405 250.487 66.3318 250.231 66.5182C249.09 67.3804 248.077 68.1611 247.193 68.8602C246.308 69.536 245.504 70.1185 244.782 70.6079C244.061 71.0973 243.409 71.4701 242.826 71.7264C242.244 71.9828 241.697 72.1109 241.185 72.1109C240.719 72.1109 240.3 71.9828 239.927 71.7264C239.578 71.4701 239.264 71.1555 238.984 70.7827C238.728 70.4098 238.507 70.0137 238.321 69.5942C238.134 69.1515 237.971 68.7437 237.832 68.3708C237.715 67.998 237.622 67.695 237.552 67.462C237.482 67.229 237.424 67.1241 237.377 67.1474L233.291 70.3283ZM226.864 64.0714C226.864 64.7006 226.98 65.2133 227.213 65.6094C227.469 66.0056 227.795 66.3085 228.191 66.5182C228.587 66.728 229.029 66.8794 229.518 66.9726C230.031 67.0425 230.555 67.0775 231.09 67.0775C231.579 67.0775 232.185 66.961 232.907 66.728C233.628 66.4716 234.327 66.1454 235.002 65.7492C235.701 65.3298 236.295 64.8637 236.784 64.3511C237.273 63.8151 237.517 63.2791 237.517 62.7432V56.9757C237.517 56.7193 237.424 56.5912 237.238 56.5912C237.191 56.5912 237.145 56.6028 237.098 56.6261L228.994 60.4012C228.668 60.6342 228.366 60.8556 228.086 61.0653C227.83 61.2518 227.609 61.4848 227.423 61.7644C227.236 62.0208 227.097 62.3354 227.004 62.7082C226.91 63.0578 226.864 63.5122 226.864 64.0714Z" fill="black"/>
<path d="M266.054 38.2052C266.147 38.1586 266.24 38.112 266.334 38.0653C266.45 38.0187 266.532 37.9954 266.578 37.9954C266.974 37.9954 267.172 38.2751 267.172 38.8343V44.7766C267.172 44.8465 267.172 44.9397 267.172 45.0562C267.195 45.1494 267.265 45.196 267.381 45.196C267.498 45.196 267.591 45.1611 267.661 45.0912C267.731 44.998 267.801 44.9164 267.87 44.8465C268.29 44.2872 268.755 43.6697 269.268 42.9939C269.803 42.2948 270.362 41.6423 270.944 41.0365C271.55 40.4306 272.167 39.9296 272.795 39.5334C273.424 39.114 274.041 38.9043 274.647 38.9043C275.066 38.9043 275.613 39.0208 276.288 39.2538C276.964 39.4868 277.616 39.7665 278.244 40.0927C278.896 40.3956 279.444 40.7219 279.886 41.0714C280.352 41.3977 280.585 41.6657 280.585 41.8754C280.585 42.0851 280.48 42.4813 280.27 43.0638C280.061 43.6231 279.793 44.194 279.467 44.7766C279.164 45.3592 278.827 45.8835 278.454 46.3495C278.105 46.7923 277.779 47.0137 277.476 47.0137H277.406C276.987 46.8739 276.556 46.7107 276.114 46.5243C275.695 46.3146 275.264 46.1165 274.821 45.9301C274.379 45.7204 273.925 45.5572 273.459 45.4407C273.017 45.3009 272.563 45.231 272.097 45.231C271.398 45.231 270.746 45.3825 270.141 45.6854C269.535 45.965 269.011 46.3379 268.569 46.804C268.15 47.2467 267.812 47.7477 267.556 48.307C267.3 48.8663 267.172 49.4022 267.172 49.9149V64.6656C267.172 65.3414 267.312 65.9124 267.591 66.3784C267.894 66.8212 268.266 67.194 268.709 67.497C269.174 67.7766 269.675 67.998 270.211 68.1611C270.77 68.3009 271.305 68.4174 271.817 68.5106C272.33 68.6039 272.795 68.6854 273.215 68.7553C273.634 68.8019 273.948 68.8718 274.158 68.965C274.391 69.0583 274.507 69.3845 274.507 69.9438C274.507 70.6196 274.391 70.9808 274.158 71.0274H254.004C253.771 70.9808 253.654 70.6196 253.654 69.9438C253.654 69.3845 253.771 69.0583 254.004 68.965C254.306 68.8252 254.737 68.7204 255.296 68.6505C255.855 68.5572 256.414 68.3941 256.973 68.1611C257.531 67.9048 258.021 67.5203 258.44 67.0076C258.859 66.4716 259.068 65.691 259.068 64.6656V47.8526C259.068 47.2933 258.917 46.8622 258.614 46.5593C258.312 46.233 257.927 45.9883 257.462 45.8252C256.996 45.6621 256.495 45.5339 255.96 45.4407C255.424 45.3242 254.912 45.196 254.423 45.0562C254.283 45.0096 254.167 44.9514 254.074 44.8815C254.004 44.7882 253.969 44.6135 253.969 44.3571C253.969 44.2406 254.004 44.1241 254.074 44.0076C254.143 43.8911 254.283 43.7746 254.493 43.6581L266.054 38.2052Z" fill="black"/>
<path d="M285.894 44.0775H283.274C282.948 44.0775 282.692 43.9959 282.506 43.8328C282.319 43.6697 282.215 43.4949 282.191 43.3085C282.191 43.192 282.215 43.0638 282.261 42.924C282.308 42.7842 282.366 42.691 282.436 42.6444C282.902 42.3414 283.402 41.9919 283.938 41.5957C284.497 41.1763 285.044 40.7452 285.579 40.3024C286.115 39.8597 286.639 39.4169 287.151 38.9742C287.664 38.5314 288.118 38.1236 288.514 37.7508C288.746 37.4944 289.061 37.1099 289.457 36.5973C289.876 36.0846 290.341 35.5836 290.854 35.0942C291.389 34.5816 291.96 34.1388 292.565 33.766C293.171 33.3698 293.788 33.1717 294.417 33.1717C294.556 33.1717 294.719 33.2183 294.906 33.3116C295.092 33.4048 295.185 33.5213 295.185 33.6611C295.185 33.8242 295.138 34.0805 295.045 34.4301C294.975 34.7563 294.882 35.1292 294.766 35.5486C294.649 35.9681 294.521 36.4108 294.382 36.8769C294.242 37.343 294.114 37.7974 293.997 38.2401C293.997 38.4265 294.021 38.578 294.067 38.6945C294.137 38.811 294.3 38.881 294.556 38.9043H303.463C303.836 38.9043 304.092 38.9742 304.232 39.114C304.371 39.2305 304.476 39.3936 304.546 39.6033C304.592 39.7199 304.639 39.9645 304.686 40.3374C304.732 40.6869 304.779 41.0831 304.825 41.5258C304.872 41.9453 304.907 42.3764 304.93 42.8191C304.977 43.2386 305 43.5881 305 43.8678C305 44.0076 304.907 44.0775 304.721 44.0775H294.207C294.091 44.0775 294.021 44.1008 293.997 44.1474C293.997 44.194 293.997 44.2756 293.997 44.3921V61.7644C293.997 62.5101 294.091 63.1626 294.277 63.7219C294.463 64.2812 294.696 64.7472 294.975 65.1201C295.278 65.4929 295.616 65.7725 295.988 65.959C296.361 66.1454 296.733 66.2386 297.106 66.2386C298.177 66.2386 299.05 66.0871 299.726 65.7842C300.401 65.458 300.983 65.1084 301.472 64.7356C301.961 64.3627 302.392 64.0248 302.765 63.7219C303.137 63.3956 303.556 63.2325 304.022 63.2325C304.348 63.2325 304.534 63.3607 304.581 63.617C304.651 63.8734 304.686 64.0714 304.686 64.2112C304.686 64.5142 304.639 64.7589 304.546 64.9453C304.476 65.1084 304.418 65.2366 304.371 65.3298C304.348 65.3764 304.22 65.5745 303.987 65.924C303.754 66.2736 303.44 66.693 303.044 67.1824C302.648 67.6717 302.159 68.196 301.577 68.7553C301.018 69.3146 300.389 69.8389 299.691 70.3283C298.992 70.7943 298.224 71.1788 297.385 71.4818C296.57 71.808 295.709 71.9711 294.801 71.9711C293.543 71.9711 292.367 71.7381 291.273 71.272C290.178 70.806 289.235 70.1884 288.444 69.4194C287.652 68.6272 287.023 67.73 286.557 66.728C286.115 65.7259 285.894 64.689 285.894 63.617V44.0775Z" fill="black"/>
<path d="M61.1026 20.4207C61.4005 20.7186 61.7731 20.8678 62.1458 20.8678C62.5185 20.8678 62.8912 20.7186 63.189 20.4207C63.7852 19.8243 63.7852 18.8552 63.189 18.2595L55.4397 10.5083V5.14186L61.0283 10.7319C61.3262 11.0298 61.6988 11.179 62.0715 11.179C62.4442 11.179 62.8169 11.0298 63.1147 10.7319C63.7109 10.1355 63.7109 9.1664 63.1147 8.57066L54.9177 0.371728C54.9177 0.371728 54.8434 0.297383 54.7685 0.297383L54.6942 0.223037C54.6942 0.223037 54.6199 0.223037 54.6199 0.148691C54.6199 0.148691 54.5456 0.148691 54.5456 0.0743457C54.5456 0.0743457 54.4712 0.0743457 54.4712 0H52.9842C52.9842 0 52.9098 -8.33378e-09 52.9098 0.0743457C52.9098 0.0743457 52.8355 0.0743457 52.8355 0.148691C52.8355 0.148691 52.7612 0.148691 52.7612 0.223037C52.7612 0.223037 52.6868 0.223037 52.6868 0.297383C52.6125 0.297383 52.6125 0.371728 52.5377 0.371728L44.4156 8.57066C43.8194 9.167 43.8194 10.1361 44.4156 10.7319C45.0118 11.3282 45.9807 11.3282 46.5763 10.7319L52.165 5.14186V10.5083L44.7093 18.3339C44.1131 18.9302 44.1131 19.8993 44.7093 20.4951C45.3055 21.0914 46.2744 21.0914 46.87 20.4951L52.4586 14.9051V20.2715L44.7093 28.0227C44.1131 28.619 44.1131 29.5881 44.7093 30.1839C45.3055 30.7802 46.2744 30.7802 46.87 30.1839L52.4586 24.5939V29.9603L44.7093 37.7115C44.1131 38.3078 44.1131 39.2769 44.7093 39.8727C45.3055 40.469 46.2744 40.469 46.87 39.8727L52.4586 34.2827V59.2514L33.6807 30.1833L37.7792 23.7735C38.2262 23.1028 38.0027 22.1337 37.3322 21.6865C36.6617 21.2393 35.6928 21.463 35.2458 22.1337L31.8178 27.5001L28.3898 22.1337C27.9428 21.463 26.9739 21.2394 26.3034 21.6865C25.6328 22.1337 25.4093 23.1028 25.8564 23.7735L29.9548 30.1833L5.51375 68.0463H1.49018C0.670481 68.0463 0 68.717 0 69.5368C0 70.3567 0.67052 71.0274 1.49018 71.0274H62.2203C63.04 71.0274 63.7105 70.3567 63.7105 69.5368C63.7105 68.7169 63.04 68.0463 62.2203 68.0463H58.1967L55.5142 63.9468V34.3571L61.1029 39.9471C61.4007 40.245 61.7734 40.3942 62.146 40.3942C62.5187 40.3942 62.8914 40.245 63.1892 39.9471C63.7854 39.3507 63.7854 38.3816 63.1892 37.7859L55.4399 30.0347V24.6683L61.0285 30.2583C61.3264 30.5562 61.6991 30.7054 62.0717 30.7054C62.4444 30.7054 62.8171 30.5562 63.1149 30.2583C63.7111 29.6619 63.7111 28.6928 63.1149 28.0971L55.3656 20.3459V14.9795L61.1026 20.4207ZM31.818 32.6441L34.8733 37.3399L31.818 42.0356L28.7628 37.3399L31.818 32.6441ZM44.8582 67.8239H18.7778L31.818 47.6253L44.8582 67.8239ZM26.9745 40.0975L30.0298 44.7932L15.2012 67.7495H9.09066L26.9745 40.0975ZM48.435 67.8239L33.6064 44.8676L36.6617 40.1719L54.5454 67.8237L48.435 67.8239Z" fill="black"/>
</svg>
