<svg width="548" height="173" viewBox="0 0 548 173" fill="none" xmlns="http://www.w3.org/2000/svg">
<path d="M180.562 115.125C180.562 116.542 180.771 117.729 181.188 118.688C181.646 119.646 182.271 120.417 183.062 121C183.896 121.583 184.896 122 186.062 122.25C187.271 122.5 188.604 122.625 190.062 122.625C190.396 122.625 190.562 122.792 190.562 123.125V126.5C190.562 126.625 190.542 126.75 190.5 126.875C190.458 126.958 190.312 127 190.062 127H153.125C152.917 127 152.771 126.938 152.688 126.812C152.646 126.688 152.625 126.583 152.625 126.5V123.125C152.625 123.042 152.646 122.938 152.688 122.812C152.771 122.688 152.917 122.625 153.125 122.625C154.583 122.625 155.896 122.542 157.062 122.375C158.271 122.167 159.292 121.75 160.125 121.125C160.958 120.5 161.604 119.604 162.062 118.438C162.521 117.271 162.75 115.688 162.75 113.688V50.75C162.75 49.3333 162.521 48.1458 162.062 47.1875C161.646 46.2292 161.021 45.4583 160.188 44.875C159.396 44.2917 158.396 43.875 157.188 43.625C156.021 43.375 154.708 43.25 153.25 43.25C152.917 43.25 152.75 43.0833 152.75 42.75V39.375C152.75 39.0417 152.917 38.875 153.25 38.875H190.188C190.396 38.875 190.521 38.9375 190.562 39.0625C190.646 39.1875 190.688 39.2917 190.688 39.375V42.75C190.688 42.8333 190.646 42.9375 190.562 43.0625C190.521 43.1875 190.396 43.25 190.188 43.25C188.729 43.25 187.396 43.3542 186.188 43.5625C185.021 43.7292 184.021 44.125 183.188 44.75C182.354 45.375 181.708 46.2708 181.25 47.4375C180.792 48.6042 180.562 50.1875 180.562 52.1875V115.125ZM221.188 66.375C221.354 66.2917 221.521 66.2083 221.688 66.125C221.896 66.0417 222.042 66 222.125 66C222.833 66 223.188 66.5 223.188 67.5V77.875C223.229 78.125 223.396 78.25 223.688 78.25C223.938 78.25 224.229 78.1667 224.562 78C226.438 77 228.271 75.9792 230.062 74.9375C231.854 73.8542 233.646 72.875 235.438 72C237.271 71.125 239.104 70.4167 240.938 69.875C242.771 69.3333 244.625 69.0625 246.5 69.0625C248.375 69.0625 249.958 69.2917 251.25 69.75C252.542 70.2083 253.625 70.8125 254.5 71.5625C255.375 72.2708 256.083 73.0625 256.625 73.9375C257.208 74.7708 257.708 75.5833 258.125 76.375C258.167 76.5 258.25 76.6667 258.375 76.875C258.5 77.0417 258.646 77.2292 258.812 77.4375C259.021 77.6458 259.208 77.8333 259.375 78C259.583 78.125 259.792 78.1875 260 78.1875C260.583 78.1458 261.188 77.9583 261.812 77.625C265.854 75.5833 269.146 74 271.688 72.875C274.271 71.7083 276.417 70.8542 278.125 70.3125C279.875 69.7292 281.333 69.375 282.5 69.25C283.708 69.125 284.938 69.0625 286.188 69.0625C288.646 69.0625 290.75 69.5 292.5 70.375C294.292 71.25 295.792 72.4167 297 73.875C298.208 75.2917 299.167 76.9375 299.875 78.8125C300.625 80.6458 301.188 82.5417 301.562 84.5C301.938 86.4167 302.188 88.3333 302.312 90.25C302.438 92.125 302.5 93.8333 302.5 95.375C302.5 96.8333 302.458 98.1875 302.375 99.4375C302.333 100.688 302.271 102.062 302.188 103.562C302.146 105.021 302.083 106.688 302 108.562C301.958 110.438 301.938 112.708 301.938 115.375C301.938 116.625 302.167 117.667 302.625 118.5C303.083 119.333 303.667 120.021 304.375 120.562C305.125 121.104 305.938 121.521 306.812 121.812C307.688 122.062 308.542 122.271 309.375 122.438C310.208 122.604 310.958 122.75 311.625 122.875C312.333 122.958 312.875 123.083 313.25 123.25C313.417 123.333 313.562 123.604 313.688 124.062C313.812 124.521 313.875 124.854 313.875 125.062C313.875 125.312 313.833 125.688 313.75 126.188C313.667 126.646 313.5 126.917 313.25 127H278.375C278.125 126.917 277.958 126.646 277.875 126.188C277.792 125.688 277.75 125.312 277.75 125.062C277.75 124.854 277.812 124.521 277.938 124.062C278.062 123.604 278.208 123.333 278.375 123.25C278.917 123 279.688 122.812 280.688 122.688C281.688 122.521 282.688 122.208 283.688 121.75C284.688 121.25 285.542 120.5 286.25 119.5C287 118.5 287.375 117 287.375 115V114.875C287.583 113.583 287.708 112.167 287.75 110.625C287.833 109.042 287.875 107.312 287.875 105.438C287.875 104.521 287.854 103.667 287.812 102.875C287.812 102.042 287.812 101.208 287.812 100.375C287.812 99.5 287.792 98.5625 287.75 97.5625C287.75 96.5625 287.75 95.4167 287.75 94.125C287.75 92.0833 287.646 90.0417 287.438 88C287.271 85.9583 286.812 84.125 286.062 82.5C285.354 80.875 284.292 79.5625 282.875 78.5625C281.458 77.5208 279.5 77 277 77C276.583 77 276.125 77.0625 275.625 77.1875C275.125 77.2708 274.438 77.4792 273.562 77.8125C272.688 78.1042 271.521 78.5625 270.062 79.1875C268.604 79.8125 266.688 80.625 264.312 81.625C263.979 81.8333 263.625 82.0833 263.25 82.375C262.917 82.625 262.729 82.9583 262.688 83.375V115.375C262.688 117.25 263.062 118.688 263.812 119.688C264.562 120.646 265.438 121.354 266.438 121.812C267.438 122.229 268.438 122.521 269.438 122.688C270.438 122.812 271.208 123 271.75 123.25C271.917 123.333 272.062 123.604 272.188 124.062C272.312 124.521 272.375 124.854 272.375 125.062C272.375 125.312 272.333 125.688 272.25 126.188C272.167 126.646 272 126.917 271.75 127H239.125C238.875 126.917 238.708 126.646 238.625 126.188C238.542 125.688 238.5 125.312 238.5 125.062C238.5 124.854 238.562 124.521 238.688 124.062C238.812 123.604 238.958 123.333 239.125 123.25C239.667 123 240.438 122.812 241.438 122.688C242.438 122.521 243.438 122.229 244.438 121.812C245.438 121.354 246.312 120.646 247.062 119.688C247.812 118.688 248.188 117.25 248.188 115.375V88.125C248.188 86.5 248.062 85.0208 247.812 83.6875C247.562 82.3125 247.083 81.1458 246.375 80.1875C245.667 79.1875 244.667 78.4167 243.375 77.875C242.125 77.3333 240.479 77.0625 238.438 77.0625C237.479 77.0625 236.271 77.3333 234.812 77.875C233.354 78.375 231.854 79.0208 230.312 79.8125C228.812 80.6042 227.396 81.4375 226.062 82.3125C224.771 83.1875 223.812 84 223.188 84.75V115.375C223.188 117.25 223.562 118.688 224.312 119.688C225.062 120.646 225.938 121.354 226.938 121.812C227.938 122.229 228.938 122.521 229.938 122.688C230.938 122.812 231.708 123 232.25 123.25C232.417 123.333 232.562 123.604 232.688 124.062C232.812 124.521 232.875 124.854 232.875 125.062C232.875 125.312 232.833 125.688 232.75 126.188C232.667 126.646 232.5 126.917 232.25 127H199.625C199.375 126.917 199.208 126.646 199.125 126.188C199.042 125.688 199 125.312 199 125.062C199 124.854 199.062 124.521 199.188 124.062C199.312 123.604 199.458 123.333 199.625 123.25C200.167 123 200.938 122.812 201.938 122.688C202.938 122.521 203.938 122.229 204.938 121.812C205.938 121.354 206.812 120.667 207.562 119.75C208.312 118.792 208.688 117.375 208.688 115.5V83.6875C208.688 82.6875 208.417 81.9167 207.875 81.375C207.333 80.7917 206.646 80.3542 205.812 80.0625C204.979 79.7708 204.083 79.5417 203.125 79.375C202.167 79.1667 201.25 78.9375 200.375 78.6875C200.125 78.6042 199.917 78.5 199.75 78.375C199.625 78.2083 199.562 77.8958 199.562 77.4375C199.562 77.2292 199.625 77.0208 199.75 76.8125C199.875 76.6042 200.125 76.3958 200.5 76.1875L221.188 66.375ZM337.062 66.375C337.229 66.2917 337.396 66.2083 337.562 66.125C337.771 66.0417 337.917 66 338 66C338.708 66 339.062 66.5 339.062 67.5V74.125C339.062 74.3333 339.146 74.5 339.312 74.625C339.521 74.75 339.688 74.8125 339.812 74.8125C340.021 74.8125 340.208 74.7708 340.375 74.6875C340.583 74.5625 340.771 74.4583 340.938 74.375C342.604 73.375 344.104 72.5417 345.438 71.875C346.771 71.1667 348.042 70.625 349.25 70.25C350.458 69.8333 351.708 69.5417 353 69.375C354.292 69.2083 355.75 69.125 357.375 69.125C360.917 69.125 364.083 69.9792 366.875 71.6875C369.708 73.3542 372.104 75.5625 374.062 78.3125C376.021 81.0208 377.521 84.0833 378.562 87.5C379.604 90.9167 380.125 94.3542 380.125 97.8125C380.125 100.354 379.771 102.896 379.062 105.438C378.354 107.979 377.375 110.396 376.125 112.688C374.875 114.938 373.375 117.042 371.625 119C369.875 120.958 367.938 122.667 365.812 124.125C363.729 125.542 361.479 126.646 359.062 127.438C356.688 128.271 354.229 128.688 351.688 128.688C349.812 128.688 347.979 128.562 346.188 128.312C344.438 128.062 342.5 127.708 340.375 127.25C339.667 127.25 339.271 127.5 339.188 128C339.146 128.5 339.104 129.021 339.062 129.562V155C339.062 156.208 339.312 157.208 339.812 158C340.354 158.833 341.021 159.5 341.812 160C342.646 160.542 343.542 160.938 344.5 161.188C345.5 161.479 346.458 161.708 347.375 161.875C348.292 162.042 349.125 162.167 349.875 162.25C350.625 162.375 351.188 162.521 351.562 162.688C351.979 162.854 352.188 163.125 352.188 163.5C352.188 164.083 351.979 164.417 351.562 164.5H315.5C315.083 164.417 314.875 164.083 314.875 163.5C314.875 163.125 315.083 162.854 315.5 162.688C316.042 162.438 316.812 162.229 317.812 162.062C318.812 161.938 319.812 161.646 320.812 161.188C321.812 160.771 322.688 160.083 323.438 159.125C324.188 158.208 324.562 156.833 324.562 155V83.625C324.562 82.625 324.292 81.8542 323.75 81.3125C323.208 80.7292 322.521 80.2917 321.688 80C320.854 79.7083 319.958 79.4792 319 79.3125C318.042 79.1042 317.125 78.875 316.25 78.625C316 78.5417 315.792 78.4375 315.625 78.3125C315.5 78.1458 315.438 77.8333 315.438 77.375C315.438 77.1667 315.5 76.9583 315.625 76.75C315.75 76.5417 316 76.3333 316.375 76.125L337.062 66.375ZM351.812 76.1875C349.562 76.1875 347.5 76.5 345.625 77.125C343.792 77.75 341.917 78.7708 340 80.1875C339.917 80.2292 339.812 80.3125 339.688 80.4375C339.604 80.5208 339.521 80.6042 339.438 80.6875L339.062 81.0625V114.438C339.062 114.562 339.083 114.917 339.125 115.5C339.167 116.042 339.229 116.542 339.312 117C339.438 117.875 339.979 118.688 340.938 119.438C341.896 120.146 342.979 120.771 344.188 121.312C345.438 121.812 346.667 122.208 347.875 122.5C349.125 122.75 350.125 122.875 350.875 122.875C353.625 122.875 355.938 122.375 357.812 121.375C359.729 120.375 361.271 119.042 362.438 117.375C363.604 115.667 364.438 113.688 364.938 111.438C365.479 109.188 365.75 106.792 365.75 104.25C365.75 102.292 365.646 100.25 365.438 98.125C365.229 95.9583 364.896 93.8333 364.438 91.75C364.021 89.6667 363.438 87.6875 362.688 85.8125C361.979 83.9375 361.104 82.2917 360.062 80.875C359.062 79.4583 357.875 78.3333 356.5 77.5C355.125 76.625 353.562 76.1875 351.812 76.1875ZM417.438 125.75C416.062 126.708 414.438 127.458 412.562 128C410.688 128.542 408.812 128.812 406.938 128.812C401.854 128.812 397.979 127.667 395.312 125.375C392.688 123.083 391.375 119.979 391.375 116.062C391.375 113.812 391.875 111.875 392.875 110.25C393.917 108.625 395.438 107.188 397.438 105.938C399.438 104.688 401.896 103.562 404.812 102.562C407.771 101.521 411.188 100.5 415.062 99.5C417.146 98.9583 418.812 98.375 420.062 97.75C421.354 97.125 422.542 96.5208 423.625 95.9375C424.333 95.5625 424.729 95.2292 424.812 94.9375C424.938 94.6458 425 94.375 425 94.125V83.25C425 81.875 424.792 80.6042 424.375 79.4375C424 78.2292 423.417 77.1875 422.625 76.3125C421.833 75.4375 420.875 74.75 419.75 74.25C418.625 73.75 417.354 73.5 415.938 73.5C414.729 73.5 413.604 73.7083 412.562 74.125C411.521 74.5417 410.625 75.1458 409.875 75.9375C409.125 76.7292 408.521 77.6667 408.062 78.75C407.646 79.8333 407.438 81.0625 407.438 82.4375C407.438 82.5625 407.438 82.75 407.438 83C407.479 83.25 407.521 83.5208 407.562 83.8125C407.604 84.0625 407.646 84.2917 407.688 84.5C407.729 84.7083 407.75 84.8333 407.75 84.875C407.708 84.9583 407.354 85.125 406.688 85.375C406.062 85.625 405.271 85.9167 404.312 86.25C403.396 86.5417 402.375 86.8542 401.25 87.1875C400.125 87.4792 399.042 87.7708 398 88.0625C397 88.3542 396.104 88.625 395.312 88.875C394.562 89.0833 394.042 89.2083 393.75 89.25C393.292 89.25 393 89.0208 392.875 88.5625C392.792 88.0625 392.75 87.5833 392.75 87.125C392.75 84.7083 393.479 82.3542 394.938 80.0625C396.396 77.7708 398.333 75.75 400.75 74C403.208 72.2083 406.021 70.7708 409.188 69.6875C412.354 68.6042 415.625 68.0625 419 68.0625C422 68.0625 424.688 68.4583 427.062 69.25C429.438 70 431.458 71.0625 433.125 72.4375C434.792 73.7708 436.062 75.3333 436.938 77.125C437.812 78.875 438.25 80.75 438.25 82.75V112.562C438.25 113.646 438.646 114.625 439.438 115.5C440.271 116.333 441.333 116.75 442.625 116.75C443.375 116.75 444.042 116.625 444.625 116.375C445.25 116.083 445.792 115.771 446.25 115.438C446.75 115.062 447.167 114.75 447.5 114.5C447.833 114.208 448.125 114.062 448.375 114.062C448.708 114.062 448.896 114.208 448.938 114.5C448.979 114.75 449 114.979 449 115.188C449 115.896 448.896 116.625 448.688 117.375C448.521 118.083 448.208 118.604 447.75 118.938C445.708 120.479 443.896 121.875 442.312 123.125C440.729 124.333 439.292 125.375 438 126.25C436.708 127.125 435.542 127.792 434.5 128.25C433.458 128.708 432.479 128.938 431.562 128.938C430.729 128.938 429.979 128.708 429.312 128.25C428.688 127.792 428.125 127.229 427.625 126.562C427.167 125.896 426.771 125.188 426.438 124.438C426.104 123.646 425.812 122.917 425.562 122.25C425.354 121.583 425.188 121.042 425.062 120.625C424.938 120.208 424.833 120.021 424.75 120.062L417.438 125.75ZM405.938 114.562C405.938 115.688 406.146 116.604 406.562 117.312C407.021 118.021 407.604 118.562 408.312 118.938C409.021 119.312 409.812 119.583 410.688 119.75C411.604 119.875 412.542 119.938 413.5 119.938C414.375 119.938 415.458 119.729 416.75 119.312C418.042 118.854 419.292 118.271 420.5 117.562C421.75 116.812 422.812 115.979 423.688 115.062C424.562 114.104 425 113.146 425 112.188V101.875C425 101.417 424.833 101.188 424.5 101.188C424.417 101.188 424.333 101.208 424.25 101.25L409.75 108C409.167 108.417 408.625 108.812 408.125 109.188C407.667 109.521 407.271 109.938 406.938 110.438C406.604 110.896 406.354 111.458 406.188 112.125C406.021 112.75 405.938 113.562 405.938 114.562ZM476.062 68.3125C476.229 68.2292 476.396 68.1458 476.562 68.0625C476.771 67.9792 476.917 67.9375 477 67.9375C477.708 67.9375 478.062 68.4375 478.062 69.4375V80.0625C478.062 80.1875 478.062 80.3542 478.062 80.5625C478.104 80.7292 478.229 80.8125 478.438 80.8125C478.646 80.8125 478.812 80.75 478.938 80.625C479.062 80.4583 479.188 80.3125 479.312 80.1875C480.062 79.1875 480.896 78.0833 481.812 76.875C482.771 75.625 483.771 74.4583 484.812 73.375C485.896 72.2917 487 71.3958 488.125 70.6875C489.25 69.9375 490.354 69.5625 491.438 69.5625C492.188 69.5625 493.167 69.7708 494.375 70.1875C495.583 70.6042 496.75 71.1042 497.875 71.6875C499.042 72.2292 500.021 72.8125 500.812 73.4375C501.646 74.0208 502.062 74.5 502.062 74.875C502.062 75.25 501.875 75.9583 501.5 77C501.125 78 500.646 79.0208 500.062 80.0625C499.521 81.1042 498.917 82.0417 498.25 82.875C497.625 83.6667 497.042 84.0625 496.5 84.0625H496.375C495.625 83.8125 494.854 83.5208 494.062 83.1875C493.312 82.8125 492.542 82.4583 491.75 82.125C490.958 81.75 490.146 81.4583 489.312 81.25C488.521 81 487.708 80.875 486.875 80.875C485.625 80.875 484.458 81.1458 483.375 81.6875C482.292 82.1875 481.354 82.8542 480.562 83.6875C479.812 84.4792 479.208 85.375 478.75 86.375C478.292 87.375 478.062 88.3333 478.062 89.25V115.625C478.062 116.833 478.312 117.854 478.812 118.688C479.354 119.479 480.021 120.146 480.812 120.688C481.646 121.188 482.542 121.583 483.5 121.875C484.5 122.125 485.458 122.333 486.375 122.5C487.292 122.667 488.125 122.812 488.875 122.938C489.625 123.021 490.188 123.146 490.562 123.312C490.979 123.479 491.188 124.062 491.188 125.062C491.188 126.271 490.979 126.917 490.562 127H454.5C454.083 126.917 453.875 126.271 453.875 125.062C453.875 124.062 454.083 123.479 454.5 123.312C455.042 123.062 455.812 122.875 456.812 122.75C457.812 122.583 458.812 122.292 459.812 121.875C460.812 121.417 461.688 120.729 462.438 119.812C463.188 118.854 463.562 117.458 463.562 115.625V85.5625C463.562 84.5625 463.292 83.7917 462.75 83.25C462.208 82.6667 461.521 82.2292 460.688 81.9375C459.854 81.6458 458.958 81.4167 458 81.25C457.042 81.0417 456.125 80.8125 455.25 80.5625C455 80.4792 454.792 80.375 454.625 80.25C454.5 80.0833 454.438 79.7708 454.438 79.3125C454.438 79.1042 454.5 78.8958 454.625 78.6875C454.75 78.4792 455 78.2708 455.375 78.0625L476.062 68.3125ZM511.562 78.8125H506.875C506.292 78.8125 505.833 78.6667 505.5 78.375C505.167 78.0833 504.979 77.7708 504.938 77.4375C504.938 77.2292 504.979 77 505.062 76.75C505.146 76.5 505.25 76.3333 505.375 76.25C506.208 75.7083 507.104 75.0833 508.062 74.375C509.062 73.625 510.042 72.8542 511 72.0625C511.958 71.2708 512.896 70.4792 513.812 69.6875C514.729 68.8958 515.542 68.1667 516.25 67.5C516.667 67.0417 517.229 66.3542 517.938 65.4375C518.688 64.5208 519.521 63.625 520.438 62.75C521.396 61.8333 522.417 61.0417 523.5 60.375C524.583 59.6667 525.688 59.3125 526.812 59.3125C527.062 59.3125 527.354 59.3958 527.688 59.5625C528.021 59.7292 528.188 59.9375 528.188 60.1875C528.188 60.4792 528.104 60.9375 527.938 61.5625C527.812 62.1458 527.646 62.8125 527.438 63.5625C527.229 64.3125 527 65.1042 526.75 65.9375C526.5 66.7708 526.271 67.5833 526.062 68.375C526.062 68.7083 526.104 68.9792 526.188 69.1875C526.312 69.3958 526.604 69.5208 527.062 69.5625H543C543.667 69.5625 544.125 69.6875 544.375 69.9375C544.625 70.1458 544.812 70.4375 544.938 70.8125C545.021 71.0208 545.104 71.4583 545.188 72.125C545.271 72.75 545.354 73.4583 545.438 74.25C545.521 75 545.583 75.7708 545.625 76.5625C545.708 77.3125 545.75 77.9375 545.75 78.4375C545.75 78.6875 545.583 78.8125 545.25 78.8125H526.438C526.229 78.8125 526.104 78.8542 526.062 78.9375C526.062 79.0208 526.062 79.1667 526.062 79.375V110.438C526.062 111.771 526.229 112.938 526.562 113.938C526.896 114.938 527.312 115.771 527.812 116.438C528.354 117.104 528.958 117.604 529.625 117.938C530.292 118.271 530.958 118.438 531.625 118.438C533.542 118.438 535.104 118.167 536.312 117.625C537.521 117.042 538.562 116.417 539.438 115.75C540.312 115.083 541.083 114.479 541.75 113.938C542.417 113.354 543.167 113.062 544 113.062C544.583 113.062 544.917 113.292 545 113.75C545.125 114.208 545.188 114.562 545.188 114.812C545.188 115.354 545.104 115.792 544.938 116.125C544.812 116.417 544.708 116.646 544.625 116.812C544.583 116.896 544.354 117.25 543.938 117.875C543.521 118.5 542.958 119.25 542.25 120.125C541.542 121 540.667 121.938 539.625 122.938C538.625 123.938 537.5 124.875 536.25 125.75C535 126.583 533.625 127.271 532.125 127.812C530.667 128.396 529.125 128.688 527.5 128.688C525.25 128.688 523.146 128.271 521.188 127.438C519.229 126.604 517.542 125.5 516.125 124.125C514.708 122.708 513.583 121.104 512.75 119.312C511.958 117.521 511.562 115.667 511.562 113.75V78.8125Z" fill="white"/>
<path d="M109.334 36.513C109.867 37.0457 110.533 37.3125 111.2 37.3125C111.867 37.3125 112.534 37.0457 113.067 36.513C114.134 35.4468 114.134 33.7139 113.067 32.6487L99.2006 18.7892V9.19387L109.201 19.189C109.734 19.7217 110.4 19.9885 111.067 19.9885C111.734 19.9885 112.401 19.7217 112.934 19.189C114.001 18.1228 114.001 16.3899 112.934 15.3247L98.2667 0.664667C98.2667 0.664667 98.1337 0.531733 97.9998 0.531733L97.8668 0.3988C97.8668 0.3988 97.7338 0.3988 97.7338 0.265867C97.7338 0.265867 97.6008 0.265867 97.6008 0.132933C97.6008 0.132933 97.4678 0.132933 97.4678 0H97.3348H97.2018H97.0688H96.9358H96.8028H96.6698H96.5368H96.4038H95.8709H95.7379H95.6049H95.4719H95.3389H95.2059H95.0729H94.9399H94.8069C94.8069 0 94.6739 -1.41847e-08 94.6739 0.132933C94.6739 0.132933 94.5409 0.132933 94.5409 0.265867C94.5409 0.265867 94.4079 0.265867 94.4079 0.3988C94.4079 0.3988 94.2749 0.3988 94.2749 0.531733C94.1419 0.531733 94.1419 0.664667 94.008 0.664667L79.4748 15.3247C78.408 16.391 78.408 18.1238 79.4748 19.189C80.5416 20.2553 82.2753 20.2553 83.341 19.189L93.3411 9.19387V18.7892L80.0003 32.7818C78.9335 33.848 78.9335 35.5809 80.0003 36.6461C81.0671 37.7123 82.8008 37.7123 83.8665 36.6461L93.8665 26.6509V36.2463L80.0003 50.1058C78.9335 51.172 78.9335 52.9049 80.0003 53.9701C81.0671 55.0363 82.8008 55.0363 83.8665 53.9701L93.8665 43.9749V53.5703L80.0003 67.4298C78.9335 68.496 78.9335 70.2289 80.0003 71.2941C81.0671 72.3604 82.8008 72.3604 83.8665 71.2941L93.8665 61.2989V105.944L60.2664 53.9691L67.6 42.508C68.3999 41.3088 67.9999 39.5761 66.8001 38.7765C65.6004 37.9769 63.8668 38.3767 63.0668 39.5759L56.933 49.1713L50.7991 39.5759C49.9993 38.3767 48.2655 37.977 47.0658 38.7765C45.866 39.5759 45.4661 41.3088 46.2659 42.508L53.5995 53.9691L9.86599 121.67H2.66644C1.19972 121.67 0 122.869 0 124.335C0 125.801 1.19979 127 2.66644 127H111.334C112.8 127 114 125.801 114 124.335C114 122.869 112.8 121.67 111.334 121.67H104.134L99.334 114.34V61.4319L109.334 71.4271C109.867 71.9598 110.534 72.2266 111.201 72.2266C111.868 72.2266 112.534 71.9598 113.067 71.4271C114.134 70.3608 114.134 68.628 113.067 67.5628L99.201 53.7033V44.1079L109.201 54.1031C109.734 54.6358 110.401 54.9026 111.068 54.9026C111.735 54.9026 112.401 54.6358 112.934 54.1031C114.001 53.0368 114.001 51.304 112.934 50.2388L99.0681 36.3793V26.7839L109.334 36.513ZM56.9334 58.3691L62.4003 66.7653L56.9334 75.1615L51.4665 66.7653L56.9334 58.3691ZM80.2668 121.272H33.6L56.9334 85.1562L80.2668 121.272ZM48.2667 71.696L53.7336 80.0922L27.2002 121.139H16.2663L48.2667 71.696ZM86.6669 121.272L60.1334 80.2252L65.6003 71.8291L97.6005 121.272L86.6669 121.272Z" fill="white"/>
</svg>
